STARTFONT 2.1
FONT -Adobe-Times-Medium-I-Normal--17-120-100-100-P-84-ISO8859-2
SIZE 12 100 100
FONTBOUNDINGBOX 20 19 -3 -4
COMMENT $XConsortium: timI12.bdf,v 1.7 95/01/26 17:59:01 gildea Exp $
COMMENT 
COMMENT +
COMMENT  Copyright 1984-1989, 1994 Adobe Systems Incorporated.
COMMENT  Copyright 1988, 1994 Digital Equipment Corporation.
COMMENT
COMMENT  Adobe is a trademark of Adobe Systems Incorporated which may be
COMMENT  registered in certain jurisdictions.
COMMENT  Permission to use these trademarks is hereby granted only in
COMMENT  association with the images described in this file.
COMMENT
COMMENT  Permission to use, copy, modify, distribute and sell this software
COMMENT  and its documentation for any purpose and without fee is hereby
COMMENT  granted, provided that the above copyright notices appear in all
COMMENT  copies and that both those copyright notices and this permission
COMMENT  notice appear in supporting documentation, and that the names of
COMMENT  Adobe Systems and Digital Equipment Corporation not be used in
COMMENT  advertising or publicity pertaining to distribution of the software
COMMENT  without specific, written prior permission.  Adobe Systems and
COMMENT  Digital Equipment Corporation make no representations about the
COMMENT  suitability of this software for any purpose.  It is provided "as
COMMENT  is" without express or implied warranty.
COMMENT -
COMMENT  
COMMENT  Translation to ISO8859-2 by Cub Soft;  Petr.Kolar@vslib.cz
COMMENT  
STARTPROPERTIES 28
FOUNDRY "Adobe"
FAMILY_NAME "Times"
WEIGHT_NAME "Medium"
SLANT "I"
SETWIDTH_NAME "Normal"
ADD_STYLE_NAME ""
PIXEL_SIZE 17
POINT_SIZE 120
RESOLUTION_X 100
RESOLUTION_Y 100
SPACING "P"
AVERAGE_WIDTH 84
CHARSET_REGISTRY "ISO8859"
CHARSET_ENCODING "2"
CAP_HEIGHT 11
X_HEIGHT 8
FONT_ASCENT 13
FONT_DESCENT 4
FACE_NAME "Times Italic"

STARTCHAR space
ENCODING 32
SWIDTH 250 0
DWIDTH 4 0
BBX 1 1 0 0
BITMAP
00
ENDCHAR
STARTCHAR exclam
ENCODING 33
SWIDTH 333 0
DWIDTH 6 0
BBX 4 11 0 0
BITMAP
10
10
30
20
20
60
40
40
00
80
80
ENDCHAR
STARTCHAR quotedbl
ENCODING 34
SWIDTH 420 0
DWIDTH 7 0
BBX 6 4 1 6
BITMAP
24
6c
48
90
ENDCHAR
STARTCHAR numbersign
ENCODING 35
SWIDTH 500 0
DWIDTH 8 0
BBX 8 11 0 0
BITMAP
12
12
12
7f
24
24
24
fe
48
48
48
ENDCHAR
STARTCHAR dollar
ENCODING 36
SWIDTH 500 0
DWIDTH 8 0
BBX 8 13 0 -1
BITMAP
04
1d
37
29
38
18
0c
0e
12
92
d4
b8
20
ENDCHAR
STARTCHAR percent
ENCODING 37
SWIDTH 833 0
DWIDTH 13 0
BBX 12 11 0 0
BITMAP
3080
4f00
8900
8a00
9200
6460
0490
0910
0910
1120
10c0
ENDCHAR
STARTCHAR ampersand
ENCODING 38
SWIDTH 778 0
DWIDTH 13 0
BBX 9 11 2 0
BITMAP
0c00
1200
1200
1400
1800
3380
5100
9a00
8c00
ce80
7300
ENDCHAR
STARTCHAR apostrophe
ENCODING 39
SWIDTH 333 0
DWIDTH 6 0
BBX 3 4 1 6
BITMAP
20
20
40
80
ENDCHAR
STARTCHAR parenleft
ENCODING 40
SWIDTH 333 0
DWIDTH 6 0
BBX 5 14 1 -3
BITMAP
08
10
20
40
40
80
80
80
80
80
80
40
40
20
ENDCHAR
STARTCHAR parenright
ENCODING 41
SWIDTH 333 0
DWIDTH 6 0
BBX 5 14 0 -3
BITMAP
20
10
10
08
08
08
08
08
08
10
10
20
40
80
ENDCHAR
STARTCHAR asterisk
ENCODING 42
SWIDTH 500 0
DWIDTH 8 0
BBX 5 6 2 5
BITMAP
20
a8
70
70
a8
20
ENDCHAR
STARTCHAR plus
ENCODING 43
SWIDTH 675 0
DWIDTH 11 0
BBX 9 9 1 0
BITMAP
0800
0800
0800
0800
ff80
0800
0800
0800
0800
ENDCHAR
STARTCHAR comma
ENCODING 44
SWIDTH 250 0
DWIDTH 4 0
BBX 3 4 0 -2
BITMAP
20
20
40
80
ENDCHAR
STARTCHAR minus
ENCODING 45
SWIDTH 675 0
DWIDTH 11 0
BBX 7 1 2 4
BITMAP
fe
ENDCHAR
STARTCHAR period
ENCODING 46
SWIDTH 250 0
DWIDTH 4 0
BBX 1 2 1 0
BITMAP
80
80
ENDCHAR
STARTCHAR slash
ENCODING 47
SWIDTH 278 0
DWIDTH 5 0
BBX 5 11 0 0
BITMAP
08
10
10
10
20
20
20
40
40
40
80
ENDCHAR
STARTCHAR zero
ENCODING 48
SWIDTH 500 0
DWIDTH 8 0
BBX 7 11 0 0
BITMAP
1c
26
42
42
82
82
82
84
84
c8
70
ENDCHAR
STARTCHAR one
ENCODING 49
SWIDTH 500 0
DWIDTH 8 0
BBX 6 11 1 0
BITMAP
04
1c
08
08
18
10
10
30
20
20
f0
ENDCHAR
STARTCHAR two
ENCODING 50
SWIDTH 500 0
DWIDTH 8 0
BBX 8 11 -1 0
BITMAP
1e
23
01
01
02
04
08
10
20
42
fc
ENDCHAR
STARTCHAR three
ENCODING 51
SWIDTH 500 0
DWIDTH 8 0
BBX 7 11 0 0
BITMAP
1c
26
02
04
38
0c
04
04
04
88
70
ENDCHAR
STARTCHAR four
ENCODING 52
SWIDTH 500 0
DWIDTH 8 0
BBX 7 11 0 0
BITMAP
02
06
0a
16
24
44
88
fe
08
18
10
ENDCHAR
STARTCHAR five
ENCODING 53
SWIDTH 500 0
DWIDTH 8 0
BBX 7 11 0 0
BITMAP
1e
10
20
78
0c
04
04
04
04
88
70
ENDCHAR
STARTCHAR six
ENCODING 54
SWIDTH 500 0
DWIDTH 8 0
BBX 7 11 1 0
BITMAP
06
18
20
40
b8
c4
84
84
84
48
30
ENDCHAR
STARTCHAR seven
ENCODING 55
SWIDTH 500 0
DWIDTH 8 0
BBX 7 11 1 0
BITMAP
7e
82
04
08
08
10
20
20
40
80
80
ENDCHAR
STARTCHAR eight
ENCODING 56
SWIDTH 500 0
DWIDTH 8 0
BBX 7 11 0 0
BITMAP
1c
22
22
32
1c
38
4c
84
84
88
70
ENDCHAR
STARTCHAR nine
ENCODING 57
SWIDTH 500 0
DWIDTH 8 0
BBX 7 11 0 0
BITMAP
18
24
42
42
42
46
3a
04
08
30
c0
ENDCHAR
STARTCHAR colon
ENCODING 58
SWIDTH 333 0
DWIDTH 5 0
BBX 3 7 1 0
BITMAP
20
20
00
00
00
80
80
ENDCHAR
STARTCHAR semicolon
ENCODING 59
SWIDTH 333 0
DWIDTH 5 0
BBX 4 9 0 -2
BITMAP
10
10
00
00
00
20
20
40
80
ENDCHAR
STARTCHAR less
ENCODING 60
SWIDTH 675 0
DWIDTH 11 0
BBX 9 9 1 0
BITMAP
0180
0600
1800
6000
8000
6000
1800
0600
0180
ENDCHAR
STARTCHAR equal
ENCODING 61
SWIDTH 675 0
DWIDTH 11 0
BBX 8 4 1 2
BITMAP
ff
00
00
ff
ENDCHAR
STARTCHAR greater
ENCODING 62
SWIDTH 675 0
DWIDTH 11 0
BBX 9 9 2 0
BITMAP
c000
3000
0c00
0300
0080
0300
0c00
3000
c000
ENDCHAR
STARTCHAR question
ENCODING 63
SWIDTH 500 0
DWIDTH 8 0
BBX 5 11 2 0
BITMAP
70
88
88
08
10
20
40
40
00
80
80
ENDCHAR
STARTCHAR at
ENCODING 64
SWIDTH 920 0
DWIDTH 15 0
BBX 13 14 1 -3
BITMAP
0780
1860
2030
4350
44c8
8888
8888
9188
9190
92a0
4cc0
4000
3060
0f80
ENDCHAR
STARTCHAR A
ENCODING 65
SWIDTH 611 0
DWIDTH 10 0
BBX 10 11 -1 0
BITMAP
0080
0180
0280
0480
0880
0880
1f80
2080
2080
4080
e1c0
ENDCHAR
STARTCHAR B
ENCODING 66
SWIDTH 611 0
DWIDTH 10 0
BBX 9 11 0 0
BITMAP
1f00
0980
1880
1080
1100
3e00
2300
2100
6100
4200
fc00
ENDCHAR
STARTCHAR C
ENCODING 67
SWIDTH 667 0
DWIDTH 11 0
BBX 10 11 1 0
BITMAP
0740
18c0
2040
4000
4000
8000
8000
8000
c080
6100
3e00
ENDCHAR
STARTCHAR D
ENCODING 68
SWIDTH 722 0
DWIDTH 12 0
BBX 11 11 0 0
BITMAP
1f80
0840
1820
1020
1020
3020
2040
2040
6080
4300
fc00
ENDCHAR
STARTCHAR E
ENCODING 69
SWIDTH 611 0
DWIDTH 10 0
BBX 10 11 0 0
BITMAP
1fc0
0840
1800
1000
1100
3e00
2200
2000
6080
4180
ff00
ENDCHAR
STARTCHAR F
ENCODING 70
SWIDTH 611 0
DWIDTH 10 0
BBX 10 11 0 0
BITMAP
1fc0
0840
1800
1000
1100
3e00
2200
2000
6000
4000
e000
ENDCHAR
STARTCHAR G
ENCODING 71
SWIDTH 722 0
DWIDTH 12 0
BBX 11 11 0 0
BITMAP
0740
18c0
2040
4000
4000
81e0
80c0
8080
c080
6100
3e00
ENDCHAR
STARTCHAR H
ENCODING 72
SWIDTH 722 0
DWIDTH 12 0
BBX 12 11 0 0
BITMAP
1c70
0820
1860
1040
1040
3fc0
2080
2080
6180
4100
e380
ENDCHAR
STARTCHAR I
ENCODING 73
SWIDTH 333 0
DWIDTH 6 0
BBX 6 11 0 0
BITMAP
1c
08
18
10
10
30
20
20
60
40
e0
ENDCHAR
STARTCHAR J
ENCODING 74
SWIDTH 444 0
DWIDTH 7 0
BBX 7 11 0 0
BITMAP
0e
04
0c
08
08
18
10
10
b0
a0
40
ENDCHAR
STARTCHAR K
ENCODING 75
SWIDTH 667 0
DWIDTH 11 0
BBX 10 11 0 0
BITMAP
1dc0
0880
1900
1200
1400
3c00
2400
2600
6200
4300
e780
ENDCHAR
STARTCHAR L
ENCODING 76
SWIDTH 556 0
DWIDTH 9 0
BBX 9 11 0 0
BITMAP
1c00
0800
1800
1000
1000
3000
2000
2000
6080
4180
ff00
ENDCHAR
STARTCHAR M
ENCODING 77
SWIDTH 833 0
DWIDTH 14 0
BBX 15 11 0 0
BITMAP
1c0e
0c0c
1414
1428
1448
2498
2490
2510
4630
4620
e470
ENDCHAR
STARTCHAR N
ENCODING 78
SWIDTH 667 0
DWIDTH 11 0
BBX 13 11 -1 0
BITMAP
1838
0810
1c10
1420
1620
2220
2340
2140
41c0
4080
e080
ENDCHAR
STARTCHAR O
ENCODING 79
SWIDTH 722 0
DWIDTH 12 0
BBX 10 11 1 0
BITMAP
0e00
3180
4080
40c0
8040
8040
80c0
c080
4180
6300
1c00
ENDCHAR
STARTCHAR P
ENCODING 80
SWIDTH 611 0
DWIDTH 10 0
BBX 10 11 0 0
BITMAP
1f80
0840
1840
1040
1180
3e00
2000
2000
6000
4000
e000
ENDCHAR
STARTCHAR Q
ENCODING 81
SWIDTH 722 0
DWIDTH 12 0
BBX 10 14 1 -3
BITMAP
0600
1980
2080
40c0
4040
8040
8080
c080
4100
6600
1800
2000
7c80
8f00
ENDCHAR
STARTCHAR R
ENCODING 82
SWIDTH 611 0
DWIDTH 10 0
BBX 10 11 0 0
BITMAP
1f80
0840
1840
1040
1180
3e00
2400
2200
6300
4100
e180
ENDCHAR
STARTCHAR S
ENCODING 83
SWIDTH 500 0
DWIDTH 8 0
BBX 8 11 0 0
BITMAP
1d
33
21
30
18
0c
06
02
82
c4
b8
ENDCHAR
STARTCHAR T
ENCODING 84
SWIDTH 556 0
DWIDTH 9 0
BBX 9 11 1 0
BITMAP
ff80
8880
1800
1000
1000
3000
2000
2000
6000
4000
e000
ENDCHAR
STARTCHAR U
ENCODING 85
SWIDTH 722 0
DWIDTH 12 0
BBX 10 11 2 0
BITMAP
71c0
2080
6080
4100
4100
c100
8200
8200
8200
8400
7800
ENDCHAR
STARTCHAR V
ENCODING 86
SWIDTH 611 0
DWIDTH 10 0
BBX 10 11 1 0
BITMAP
f1c0
4080
4100
6100
6200
2400
2400
2800
3000
3000
2000
ENDCHAR
STARTCHAR W
ENCODING 87
SWIDTH 833 0
DWIDTH 14 0
BBX 15 11 0 0
BITMAP
e70e
4204
4208
6308
6710
2520
2920
3140
3180
2180
2100
ENDCHAR
STARTCHAR X
ENCODING 88
SWIDTH 611 0
DWIDTH 10 0
BBX 10 11 0 0
BITMAP
79c0
3080
1100
1a00
0a00
0c00
1400
1600
2200
4300
e780
ENDCHAR
STARTCHAR Y
ENCODING 89
SWIDTH 556 0
DWIDTH 9 0
BBX 9 11 1 0
BITMAP
e380
4100
6200
2400
2800
1000
1000
3000
2000
2000
7000
ENDCHAR
STARTCHAR Z
ENCODING 90
SWIDTH 556 0
DWIDTH 9 0
BBX 9 11 0 0
BITMAP
3f80
4300
0200
0400
0c00
0800
1800
1000
2000
6100
fe00
ENDCHAR
STARTCHAR bracketleft
ENCODING 91
SWIDTH 389 0
DWIDTH 6 0
BBX 6 14 0 -3
BITMAP
1c
10
10
30
20
20
60
40
40
40
c0
80
80
e0
ENDCHAR
STARTCHAR backslash
ENCODING 92
SWIDTH 278 0
DWIDTH 5 0
BBX 5 11 -1 0
BITMAP
80
40
40
40
20
20
20
10
10
10
08
ENDCHAR
STARTCHAR bracketright
ENCODING 93
SWIDTH 389 0
DWIDTH 6 0
BBX 6 14 0 -3
BITMAP
1c
04
04
0c
08
08
08
18
10
10
30
20
20
e0
ENDCHAR
STARTCHAR asciicircum
ENCODING 94
SWIDTH 422 0
DWIDTH 7 0
BBX 7 7 0 4
BITMAP
10
28
28
44
44
82
82
ENDCHAR
STARTCHAR underscore
ENCODING 95
SWIDTH 500 0
DWIDTH 8 0
BBX 8 1 0 -4
BITMAP
ff
ENDCHAR
STARTCHAR grave
ENCODING 96
SWIDTH 333 0
DWIDTH 6 0
BBX 3 3 1 9
BITMAP
c0
40
20
ENDCHAR
STARTCHAR a
ENCODING 97
SWIDTH 500 0
DWIDTH 8 0
BBX 7 8 0 0
BITMAP
1a
26
44
c4
8c
88
9a
64
ENDCHAR
STARTCHAR b
ENCODING 98
SWIDTH 500 0
DWIDTH 8 0
BBX 7 11 0 0
BITMAP
30
10
30
2c
32
62
42
46
c4
c8
b0
ENDCHAR
STARTCHAR c
ENCODING 99
SWIDTH 444 0
DWIDTH 7 0
BBX 6 8 0 0
BITMAP
18
64
40
c0
80
80
c8
70
ENDCHAR
STARTCHAR d
ENCODING 100
SWIDTH 500 0
DWIDTH 8 0
BBX 8 11 0 0
BITMAP
03
01
03
1a
26
44
c4
8c
8c
95
62
ENDCHAR
STARTCHAR e
ENCODING 101
SWIDTH 444 0
DWIDTH 7 0
BBX 6 8 1 0
BITMAP
18
64
44
98
e0
80
c8
70
ENDCHAR
STARTCHAR f
ENCODING 102
SWIDTH 278 0
DWIDTH 5 0
BBX 8 15 -2 -4
BITMAP
03
05
04
04
3e
08
08
18
10
10
30
20
20
a0
c0
ENDCHAR
STARTCHAR g
ENCODING 103
SWIDTH 500 0
DWIDTH 8 0
BBX 8 12 0 -4
BITMAP
1c
33
22
22
26
1c
20
38
cc
84
8c
78
ENDCHAR
STARTCHAR h
ENCODING 104
SWIDTH 500 0
DWIDTH 8 0
BBX 7 11 0 0
BITMAP
30
10
30
26
2a
72
66
44
cc
8a
8c
ENDCHAR
STARTCHAR i
ENCODING 105
SWIDTH 278 0
DWIDTH 5 0
BBX 4 11 1 0
BITMAP
10
10
00
20
60
20
60
40
c0
a0
c0
ENDCHAR
STARTCHAR j
ENCODING 106
SWIDTH 278 0
DWIDTH 5 0
BBX 7 15 -3 -4
BITMAP
02
02
00
06
02
06
04
04
0c
08
08
18
10
b0
60
ENDCHAR
STARTCHAR k
ENCODING 107
SWIDTH 444 0
DWIDTH 7 0
BBX 7 11 0 0
BITMAP
30
10
30
26
24
68
50
70
d8
8a
8c
ENDCHAR
STARTCHAR l
ENCODING 108
SWIDTH 278 0
DWIDTH 5 0
BBX 4 11 1 0
BITMAP
30
10
30
20
20
60
40
40
c0
a0
c0
ENDCHAR
STARTCHAR m
ENCODING 109
SWIDTH 722 0
DWIDTH 12 0
BBX 11 8 0 0
BITMAP
6660
2aa0
3320
6660
4440
ccc0
88a0
88c0
ENDCHAR
STARTCHAR n
ENCODING 110
SWIDTH 500 0
DWIDTH 8 0
BBX 7 8 0 0
BITMAP
66
2a
32
66
44
cc
8a
8c
ENDCHAR
STARTCHAR o
ENCODING 111
SWIDTH 500 0
DWIDTH 8 0
BBX 7 8 0 0
BITMAP
1c
66
42
c2
86
84
cc
70
ENDCHAR
STARTCHAR p
ENCODING 112
SWIDTH 500 0
DWIDTH 8 0
BBX 9 12 -2 -4
BITMAP
1b00
0c80
1880
1080
1180
3100
3200
2c00
6000
4000
4000
e000
ENDCHAR
STARTCHAR q
ENCODING 113
SWIDTH 500 0
DWIDTH 8 0
BBX 7 12 0 -4
BITMAP
1a
26
44
c4
8c
88
98
68
08
18
10
38
ENDCHAR
STARTCHAR r
ENCODING 114
SWIDTH 389 0
DWIDTH 6 0
BBX 6 8 0 0
BITMAP
64
2c
30
60
40
c0
80
80
ENDCHAR
STARTCHAR s
ENCODING 115
SWIDTH 389 0
DWIDTH 6 0
BBX 5 8 0 0
BITMAP
38
48
40
60
30
10
90
e0
ENDCHAR
STARTCHAR t
ENCODING 116
SWIDTH 278 0
DWIDTH 5 0
BBX 5 10 0 0
BITMAP
10
10
78
20
60
40
40
80
a0
c0
ENDCHAR
STARTCHAR u
ENCODING 117
SWIDTH 500 0
DWIDTH 8 0
BBX 7 8 0 0
BITMAP
62
22
66
44
cc
98
aa
cc
ENDCHAR
STARTCHAR v
ENCODING 118
SWIDTH 444 0
DWIDTH 7 0
BBX 7 8 0 0
BITMAP
c6
42
42
64
64
28
30
20
ENDCHAR
STARTCHAR w
ENCODING 119
SWIDTH 667 0
DWIDTH 11 0
BBX 11 8 0 0
BITMAP
4260
c220
4620
6640
6a40
2a80
3300
2200
ENDCHAR
STARTCHAR x
ENCODING 120
SWIDTH 444 0
DWIDTH 7 0
BBX 7 8 0 0
BITMAP
66
28
18
18
18
28
2a
c4
ENDCHAR
STARTCHAR y
ENCODING 121
SWIDTH 444 0
DWIDTH 7 0
BBX 7 12 -1 -4
BITMAP
66
22
22
32
14
14
18
18
10
20
a0
c0
ENDCHAR
STARTCHAR z
ENCODING 122
SWIDTH 389 0
DWIDTH 6 0
BBX 6 8 0 0
BITMAP
7c
84
08
10
30
20
44
f8
ENDCHAR
STARTCHAR braceleft
ENCODING 123
SWIDTH 400 0
DWIDTH 7 0
BBX 6 14 1 -3
BITMAP
0c
10
20
20
20
20
c0
40
40
40
80
80
80
40
ENDCHAR
STARTCHAR bar
ENCODING 124
SWIDTH 275 0
DWIDTH 5 0
BBX 5 14 0 -3
BITMAP
08
08
10
10
10
20
20
20
40
40
40
80
80
80
ENDCHAR
STARTCHAR braceright
ENCODING 125
SWIDTH 400 0
DWIDTH 7 0
BBX 6 14 -1 -3
BITMAP
08
04
04
04
08
08
08
0c
10
10
10
10
20
c0
ENDCHAR
STARTCHAR asciitilde
ENCODING 126
SWIDTH 541 0
DWIDTH 9 0
BBX 8 3 0 3
BITMAP
70
99
0e
ENDCHAR
STARTCHAR nobreakspace
ENCODING 160
SWIDTH 250 0
DWIDTH 4 0
BBX 1 1 0 0
BITMAP
00
ENDCHAR
STARTCHAR Aogonek
ENCODING 161
SWIDTH 611 0
DWIDTH 10 0
BBX 10 15 -1 -4
BITMAP
0080
0180
0280
0480
0880
0880
1f80
2080
2080
4080
e1c0
0800
1000
1200
1c00
ENDCHAR
STARTCHAR breve
ENCODING 162
SWIDTH 333 0
DWIDTH 6 0
BBX 5 2 0 9
BITMAP
88
70
ENDCHAR
STARTCHAR Lstroke
ENCODING 163
SWIDTH 556 0
DWIDTH 9 0
BBX 9 11 0 0
BITMAP
1c00
0800
1800
1400
1800
7000
a000
2000
6080
4180
ff00
ENDCHAR
STARTCHAR currency
ENCODING 164
SWIDTH 500 0
DWIDTH 8 0
BBX 6 7 1 2
BITMAP
b4
78
cc
84
cc
78
b4
ENDCHAR
STARTCHAR Lcaron
ENCODING 165
SWIDTH 600 0
DWIDTH 10 0
BBX 10 12 0 0
BITMAP
0040
1c40
0880
1900
1000
1000
3000
2000
2000
6080
4180
ff00
ENDCHAR
STARTCHAR Sacute
ENCODING 166
SWIDTH 500 0
DWIDTH 8 0
BBX 8 15 0 0
BITMAP
03
02
04
00
1d
33
21
30
18
0c
06
02
82
c4
b8
ENDCHAR
STARTCHAR section
ENCODING 167
SWIDTH 500 0
DWIDTH 8 0
BBX 7 13 0 -1
BITMAP
1c
22
22
30
58
4c
44
64
38
08
88
88
70
ENDCHAR
STARTCHAR diaeresis
ENCODING 168
SWIDTH 333 0
DWIDTH 6 0
BBX 3 2 1 9
BITMAP
a0
a0
ENDCHAR
STARTCHAR Scaron
ENCODING 169
SWIDTH 500 0
DWIDTH 8 0
BBX 8 15 0 0
BITMAP
11
0e
04
00
1d
33
21
30
18
0c
06
02
82
c4
b8
ENDCHAR
STARTCHAR Scedilla
ENCODING 170
SWIDTH 500 0
DWIDTH 8 0
BBX 8 15 0 -4
BITMAP
1d
33
21
30
18
0c
06
02
82
c4
b8
08
08
24
18
ENDCHAR
STARTCHAR Tcaron
ENCODING 171
SWIDTH 556 0
DWIDTH 9 0
BBX 9 15 1 0
BITMAP
2200
1c00
0800
0000
ff80
8880
1800
1000
1000
3000
2000
2000
6000
4000
e000
ENDCHAR
STARTCHAR Zacute
ENCODING 172
SWIDTH 556 0
DWIDTH 9 0
BBX 9 15 0 0
BITMAP
0300
0200
0400
0000
3f80
4300
0200
0400
0c00
0800
1800
1000
2000
6100
fe00
ENDCHAR
STARTCHAR hyphen
ENCODING 173
SWIDTH 333 0
DWIDTH 5 0
BBX 4 1 0 3
BITMAP
f0
ENDCHAR
STARTCHAR Zcaron
ENCODING 174
SWIDTH 556 0
DWIDTH 9 0
BBX 9 15 0 0
BITMAP
1100
0e00
0400
0000
3f80
4300
0200
0400
0c00
0800
1800
1000
2000
6100
fe00
ENDCHAR
STARTCHAR Zabovedot
ENCODING 175
SWIDTH 556 0
DWIDTH 9 0
BBX 9 14 0 0
BITMAP
0400
0400
0000
3f80
4300
0200
0400
0c00
0800
1800
1000
2000
6100
fe00
ENDCHAR
STARTCHAR degree
ENCODING 176
SWIDTH 400 0
DWIDTH 7 0
BBX 5 5 1 6
BITMAP
70
88
88
88
70
ENDCHAR
STARTCHAR aogonek
ENCODING 177
SWIDTH 500 0
DWIDTH 8 0
BBX 7 12 0 -4
BITMAP
1a
26
44
c4
8c
88
9a
64
10
20
24
38
ENDCHAR
STARTCHAR ogonek
ENCODING 178
SWIDTH 333 0
DWIDTH 6 0
BBX 4 4 0 -3
BITMAP
40
80
90
e0
ENDCHAR
STARTCHAR lstroke
ENCODING 179
SWIDTH 278 0
DWIDTH 5 0
BBX 4 11 1 0
BITMAP
30
10
30
20
20
70
c0
40
c0
a0
c0
ENDCHAR
STARTCHAR acute
ENCODING 180
SWIDTH 333 0
DWIDTH 6 0
BBX 3 3 1 9
BITMAP
60
40
80
ENDCHAR
STARTCHAR lcaron
ENCODING 181
SWIDTH 540 0
DWIDTH 9 0
BBX 8 12 1 0
BITMAP
01
31
12
34
20
20
60
40
40
c0
a0
c0
ENDCHAR
STARTCHAR sacute
ENCODING 182
SWIDTH 389 0
DWIDTH 6 0
BBX 5 12 0 0
BITMAP
18
10
20
00
38
48
40
60
30
10
90
e0
ENDCHAR
STARTCHAR caron
ENCODING 183
SWIDTH 333 0
DWIDTH 6 0
BBX 5 3 1 9
BITMAP
88
70
20
ENDCHAR
STARTCHAR cedilla
ENCODING 184
SWIDTH 333 0
DWIDTH 6 0
BBX 4 4 1 -3
BITMAP
20
20
90
60
ENDCHAR
STARTCHAR scaron
ENCODING 185
SWIDTH 389 0
DWIDTH 6 0
BBX 5 12 0 0
BITMAP
88
70
20
00
38
48
40
60
30
10
90
e0
ENDCHAR
STARTCHAR scedilla
ENCODING 186
SWIDTH 389 0
DWIDTH 6 0
BBX 5 12 0 -4
BITMAP
38
48
40
60
30
10
90
e0
10
10
48
30
ENDCHAR
STARTCHAR tcaron
ENCODING 187
SWIDTH 480 0
DWIDTH 8 0
BBX 8 13 0 0
BITMAP
01
01
02
14
10
78
20
60
40
40
80
a0
c0
ENDCHAR
STARTCHAR zacute
ENCODING 188
SWIDTH 389 0
DWIDTH 6 0
BBX 6 12 0 0
BITMAP
18
10
20
00
7c
84
08
10
30
20
44
f8
ENDCHAR
STARTCHAR doubleacute
ENCODING 189
SWIDTH 333 0
DWIDTH 6 0
BBX 6 3 0 9
BITMAP
6c
48
90
ENDCHAR
STARTCHAR zcaron
ENCODING 190
SWIDTH 389 0
DWIDTH 6 0
BBX 6 12 0 0
BITMAP
88
70
20
00
7c
84
08
10
30
20
44
f8
ENDCHAR
STARTCHAR zabovedot
ENCODING 191
SWIDTH 389 0
DWIDTH 6 0
BBX 6 11 0 0
BITMAP
20
20
00
7c
84
08
10
30
20
44
f8
ENDCHAR
STARTCHAR Racute
ENCODING 192
SWIDTH 611 0
DWIDTH 10 0
BBX 10 15 0 0
BITMAP
0180
0100
0200
0000
1f80
0840
1840
1040
1180
3e00
2400
2200
6300
4100
e180
ENDCHAR
STARTCHAR Aacute
ENCODING 193
SWIDTH 611 0
DWIDTH 10 0
BBX 11 15 -1 0
BITMAP
0060
0040
0080
0000
0080
0180
0280
0480
0880
0880
1f80
2080
2080
4080
e1c0
ENDCHAR
STARTCHAR Acircumflex
ENCODING 194
SWIDTH 611 0
DWIDTH 10 0
BBX 11 15 -1 0
BITMAP
0080
01c0
0220
0000
0080
0180
0280
0480
0880
0880
1f80
2080
2080
4080
e1c0
ENDCHAR
STARTCHAR Abreve
ENCODING 195
SWIDTH 611 0
DWIDTH 10 0
BBX 11 14 -1 0
BITMAP
0220
01c0
0000
0080
0180
0280
0480
0880
0880
1f80
2080
2080
4080
e1c0
ENDCHAR
STARTCHAR Adiaeresis
ENCODING 196
SWIDTH 611 0
DWIDTH 10 0
BBX 11 14 -1 0
BITMAP
0220
0220
0000
0080
0180
0280
0480
0880
0880
1f80
2080
2080
4080
e1c0
ENDCHAR
STARTCHAR Lacute
ENCODING 197
SWIDTH 556 0
DWIDTH 9 0
BBX 9 15 0 0
BITMAP
0600
0400
0800
0000
1c00
0800
1800
1000
1000
3000
2000
2000
6080
4180
ff00
ENDCHAR
STARTCHAR Cacute
ENCODING 198
SWIDTH 667 0
DWIDTH 11 0
BBX 10 15 1 0
BITMAP
0180
0100
0200
0000
0740
18c0
2040
4000
4000
8000
8000
8000
c080
6100
3e00
ENDCHAR
STARTCHAR Ccedilla
ENCODING 199
SWIDTH 667 0
DWIDTH 11 0
BBX 10 14 1 -3
BITMAP
0740
18c0
2040
4000
4000
8000
8000
8000
c080
6100
3e00
0800
2400
1800
ENDCHAR
STARTCHAR Ccaron
ENCODING 200
SWIDTH 667 0
DWIDTH 11 0
BBX 10 15 1 0
BITMAP
0880
0700
0200
0000
0740
18c0
2040
4000
4000
8000
8000
8000
c080
6100
3e00
ENDCHAR
STARTCHAR Eacute
ENCODING 201
SWIDTH 611 0
DWIDTH 10 0
BBX 10 15 0 0
BITMAP
0180
0100
0200
0000
1fc0
0840
1800
1000
1100
3e00
2200
2000
6080
4180
ff00
ENDCHAR
STARTCHAR Eogonek
ENCODING 202
SWIDTH 611 0
DWIDTH 10 0
BBX 10 15 0 -4
BITMAP
1fc0
0840
1800
1000
1100
3e00
2200
2000
6080
4180
ff00
0800
1000
1200
1c00
ENDCHAR
STARTCHAR Ediaeresis
ENCODING 203
SWIDTH 611 0
DWIDTH 10 0
BBX 10 14 0 0
BITMAP
0480
0480
0000
1fc0
0840
1800
1000
1100
3e00
2200
2000
6080
4180
ff00
ENDCHAR
STARTCHAR Ecaron
ENCODING 204
SWIDTH 611 0
DWIDTH 10 0
BBX 10 15 0 0
BITMAP
0880
0700
0200
0000
1fc0
0840
1800
1000
1100
3e00
2200
2000
6080
4180
ff00
ENDCHAR
STARTCHAR Iacute
ENCODING 205
SWIDTH 333 0
DWIDTH 6 0
BBX 7 15 0 0
BITMAP
06
04
08
00
1c
08
18
10
10
30
20
20
60
40
e0
ENDCHAR
STARTCHAR Icircumflex
ENCODING 206
SWIDTH 333 0
DWIDTH 6 0
BBX 8 15 0 0
BITMAP
04
0e
11
00
1c
08
18
10
10
30
20
20
60
40
e0
ENDCHAR
STARTCHAR Dcaron
ENCODING 207
SWIDTH 722 0
DWIDTH 12 0
BBX 11 15 0 0
BITMAP
0880
0700
0200
0000
1f80
0840
1820
1020
1020
3020
2040
2040
6080
4300
fc00
ENDCHAR
STARTCHAR Dstroke
ENCODING 208
SWIDTH 722 0
DWIDTH 12 0
BBX 11 11 0 0
BITMAP
1f80
0840
1820
1020
1020
7820
2040
2040
6080
4300
fc00
ENDCHAR
STARTCHAR Nacute
ENCODING 209
SWIDTH 667 0
DWIDTH 11 0
BBX 13 15 -1 0
BITMAP
0060
0040
0080
0000
1838
0810
1c10
1420
1620
2220
2340
2140
41c0
4080
e080
ENDCHAR
STARTCHAR Ncaron
ENCODING 210
SWIDTH 667 0
DWIDTH 11 0
BBX 13 15 -1 0
BITMAP
0220
01c0
0080
0000
1838
0810
1c10
1420
1620
2220
2340
2140
41c0
4080
e080
ENDCHAR
STARTCHAR Oacute
ENCODING 211
SWIDTH 722 0
DWIDTH 12 0
BBX 10 15 1 0
BITMAP
0300
0200
0400
0000
0e00
3180
4080
40c0
8040
8040
80c0
c080
4180
6300
1c00
ENDCHAR
STARTCHAR Ocircumflex
ENCODING 212
SWIDTH 722 0
DWIDTH 12 0
BBX 10 15 1 0
BITMAP
0200
0700
0880
0000
0e00
3180
4080
40c0
8040
8040
80c0
c080
4180
6300
1c00
ENDCHAR
STARTCHAR Odoubleacute
ENCODING 213
SWIDTH 722 0
DWIDTH 12 0
BBX 10 15 1 0
BITMAP
06c0
0480
0900
0000
0e00
3180
4080
40c0
8040
8040
80c0
c080
4180
6300
1c00
ENDCHAR
STARTCHAR Odiaeresis
ENCODING 214
SWIDTH 722 0
DWIDTH 12 0
BBX 10 14 1 0
BITMAP
0900
0900
0000
0e00
3180
4080
40c0
8040
8040
80c0
c080
4180
6300
1c00
ENDCHAR
STARTCHAR multiply
ENCODING 215
SWIDTH 675 0
DWIDTH 11 0
BBX 9 9 1 0
BITMAP
8080
4100
2200
1400
0800
1400
2200
4100
8080
ENDCHAR
STARTCHAR Rcaron
ENCODING 216
SWIDTH 611 0
DWIDTH 10 0
BBX 10 15 0 0
BITMAP
0880
0700
0200
0000
1f80
0840
1840
1040
1180
3e00
2400
2200
6300
4100
e180
ENDCHAR
STARTCHAR Uring
ENCODING 217
SWIDTH 722 0
DWIDTH 12 0
BBX 10 16 2 0
BITMAP
0400
0a00
0a00
0400
0000
71c0
2080
6080
4100
4100
c100
8200
8200
8200
8400
7800
ENDCHAR
STARTCHAR Uacute
ENCODING 218
SWIDTH 722 0
DWIDTH 12 0
BBX 10 15 2 0
BITMAP
0300
0200
0400
0000
71c0
2080
6080
4100
4100
c100
8200
8200
8200
8400
7800
ENDCHAR
STARTCHAR Udoubleacute
ENCODING 219
SWIDTH 722 0
DWIDTH 12 0
BBX 10 15 2 0
BITMAP
06c0
0480
0900
0000
71c0
2080
6080
4100
4100
c100
8200
8200
8200
8400
7800
ENDCHAR
STARTCHAR Udiaeresis
ENCODING 220
SWIDTH 722 0
DWIDTH 12 0
BBX 10 14 2 0
BITMAP
1100
1100
0000
71c0
2080
6080
4100
4100
c100
8200
8200
8200
8400
7800
ENDCHAR
STARTCHAR Yacute
ENCODING 221
SWIDTH 556 0
DWIDTH 9 0
BBX 9 15 1 0
BITMAP
0300
0200
0400
0000
e380
4100
6200
2400
2800
1000
1000
3000
2000
2000
7000
ENDCHAR
STARTCHAR Tcedilla
ENCODING 222
SWIDTH 556 0
DWIDTH 9 0
BBX 9 15 1 -4
BITMAP
ff80
8880
1800
1000
1000
3000
2000
2000
6000
4000
e000
0400
0400
1200
0c00
ENDCHAR
STARTCHAR ssharp
ENCODING 223
SWIDTH 500 0
DWIDTH 8 0
BBX 10 15 -2 -4
BITMAP
0380
0640
0440
0cc0
0b00
0980
0880
1880
1080
1580
3300
2000
2000
a000
c000
ENDCHAR
STARTCHAR racute
ENCODING 224
SWIDTH 389 0
DWIDTH 6 0
BBX 6 12 0 0
BITMAP
0c
08
10
00
64
2c
30
60
40
c0
80
80
ENDCHAR
STARTCHAR aacute
ENCODING 225
SWIDTH 500 0
DWIDTH 8 0
BBX 7 12 0 0
BITMAP
06
04
08
00
1a
26
44
c4
8c
88
9a
64
ENDCHAR
STARTCHAR acircumflex
ENCODING 226
SWIDTH 500 0
DWIDTH 8 0
BBX 7 12 0 0
BITMAP
08
1c
22
00
1a
26
44
c4
8c
88
9a
64
ENDCHAR
STARTCHAR abreve
ENCODING 227
SWIDTH 500 0
DWIDTH 8 0
BBX 7 11 0 0
BITMAP
22
1c
00
1a
26
44
c4
8c
88
9a
64
ENDCHAR
STARTCHAR adiaeresis
ENCODING 228
SWIDTH 500 0
DWIDTH 8 0
BBX 7 11 0 0
BITMAP
12
12
00
1a
26
44
c4
8c
88
9a
64
ENDCHAR
STARTCHAR lacute
ENCODING 229
SWIDTH 278 0
DWIDTH 5 0
BBX 6 15 1 0
BITMAP
0c
08
10
00
30
10
30
20
20
60
40
40
c0
a0
c0
ENDCHAR
STARTCHAR cacute
ENCODING 230
SWIDTH 444 0
DWIDTH 7 0
BBX 6 12 0 0
BITMAP
0c
08
10
00
18
64
40
c0
80
80
c8
70
ENDCHAR
STARTCHAR ccedilla
ENCODING 231
SWIDTH 444 0
DWIDTH 7 0
BBX 6 11 1 -3
BITMAP
18
64
40
c0
80
80
c8
70
20
90
60
ENDCHAR
STARTCHAR ccaron
ENCODING 232
SWIDTH 444 0
DWIDTH 7 0
BBX 6 12 0 0
BITMAP
44
38
10
00
18
64
40
c0
80
80
c8
70
ENDCHAR
STARTCHAR eacute
ENCODING 233
SWIDTH 444 0
DWIDTH 7 0
BBX 6 12 1 0
BITMAP
0c
08
10
00
18
64
44
98
e0
80
88
70
ENDCHAR
STARTCHAR eogonek
ENCODING 234
SWIDTH 444 0
DWIDTH 7 0
BBX 6 12 1 -4
BITMAP
18
64
44
98
e0
80
c8
70
20
40
48
70
ENDCHAR
STARTCHAR ediaeresis
ENCODING 235
SWIDTH 444 0
DWIDTH 7 0
BBX 6 11 1 0
BITMAP
24
24
00
18
64
44
98
e0
80
88
70
ENDCHAR
STARTCHAR ecaron
ENCODING 236
SWIDTH 444 0
DWIDTH 7 0
BBX 6 12 1 0
BITMAP
44
38
10
00
18
64
44
98
e0
80
c8
70
ENDCHAR
STARTCHAR iacute
ENCODING 237
SWIDTH 278 0
DWIDTH 5 0
BBX 5 12 1 0
BITMAP
18
10
20
00
20
60
20
60
40
c0
a0
c0
ENDCHAR
STARTCHAR icircumflex
ENCODING 238
SWIDTH 278 0
DWIDTH 5 0
BBX 5 12 1 0
BITMAP
20
70
88
00
20
60
20
60
40
c0
a0
c0
ENDCHAR
STARTCHAR dcaron
ENCODING 239
SWIDTH 720 0
DWIDTH 12 0
BBX 12 12 0 0
BITMAP
0010
0310
0120
0340
1a00
2600
4400
c400
8c00
8c00
9500
6200
ENDCHAR
STARTCHAR dstroke
ENCODING 240
SWIDTH 600 0
DWIDTH 10 0
BBX 10 11 0 0
BITMAP
07c0
0100
0300
1a00
2600
4400
c400
8c00
8c00
9500
6200
ENDCHAR
STARTCHAR nacute
ENCODING 241
SWIDTH 500 0
DWIDTH 8 0
BBX 7 12 0 0
BITMAP
0c
08
10
00
66
2a
32
66
44
cc
8a
8c
ENDCHAR
STARTCHAR ncaron
ENCODING 242
SWIDTH 500 0
DWIDTH 8 0
BBX 7 12 0 0
BITMAP
44
38
10
00
66
2a
32
66
44
cc
8a
8c
ENDCHAR
STARTCHAR oacute
ENCODING 243
SWIDTH 500 0
DWIDTH 8 0
BBX 7 12 0 0
BITMAP
06
04
08
00
1c
66
42
c2
86
84
cc
70
ENDCHAR
STARTCHAR ocircumflex
ENCODING 244
SWIDTH 500 0
DWIDTH 8 0
BBX 7 12 0 0
BITMAP
08
1c
22
00
1c
66
42
c2
86
84
cc
70
ENDCHAR
STARTCHAR odoubleacute
ENCODING 245
SWIDTH 500 0
DWIDTH 8 0
BBX 8 12 0 0
BITMAP
1b
12
24
00
1c
66
42
c2
86
84
cc
70
ENDCHAR
STARTCHAR odiaeresis
ENCODING 246
SWIDTH 500 0
DWIDTH 8 0
BBX 7 11 0 0
BITMAP
12
12
00
1c
66
42
c2
86
84
cc
70
ENDCHAR
STARTCHAR division
ENCODING 247
SWIDTH 675 0
DWIDTH 11 0
BBX 7 7 2 1
BITMAP
10
10
00
fe
00
10
10
ENDCHAR
STARTCHAR rcaron
ENCODING 248
SWIDTH 389 0
DWIDTH 6 0
BBX 6 12 0 0
BITMAP
44
38
10
00
64
2c
30
60
40
c0
80
80
ENDCHAR
STARTCHAR uring
ENCODING 249
SWIDTH 500 0
DWIDTH 8 0
BBX 7 13 0 0
BITMAP
10
28
28
10
00
62
22
66
44
cc
98
aa
cc
ENDCHAR
STARTCHAR uacute
ENCODING 250
SWIDTH 500 0
DWIDTH 8 0
BBX 7 12 0 0
BITMAP
06
04
08
00
62
22
66
44
cc
98
aa
cc
ENDCHAR
STARTCHAR udoubleacute
ENCODING 251
SWIDTH 500 0
DWIDTH 8 0
BBX 8 12 0 0
BITMAP
1b
12
24
00
62
22
66
44
cc
98
aa
cc
ENDCHAR
STARTCHAR udiaeresis
ENCODING 252
SWIDTH 500 0
DWIDTH 8 0
BBX 7 11 0 0
BITMAP
12
12
00
62
22
66
44
cc
98
aa
cc
ENDCHAR
STARTCHAR yacute
ENCODING 253
SWIDTH 444 0
DWIDTH 7 0
BBX 7 16 0 -4
BITMAP
0c
08
10
00
66
22
22
32
14
14
18
18
10
20
a0
c0
ENDCHAR
STARTCHAR tcedilla
ENCODING 254
SWIDTH 278 0
DWIDTH 5 0
BBX 5 14 0 -4
BITMAP
10
10
78
20
60
40
40
80
a0
c0
10
10
48
30
ENDCHAR
STARTCHAR abovedot
ENCODING 255
SWIDTH 333 0
DWIDTH 6 0
BBX 1 2 2 9
BITMAP
80
80
ENDCHAR
ENDFONT
